<svg width="58" height="76" viewBox="0 0 58 76" fill="none" xmlns="http://www.w3.org/2000/svg">
<path d="M57.4667 63.6471C57.1313 62.8248 56.506 62.0856 55.8753 61.5535C55.2342 61.0075 54.5395 60.5826 53.8329 60.2141C50.9817 58.7934 47.9606 58.1711 44.9596 57.7079C44.2743 57.6079 43.5881 57.5245 42.9014 57.4493V41.1519V7.005L46.3888 10.2473V4.0636L42.018 0L37.6472 4.0636V10.2473L41.1346 7.00507V41.1519V57.2863C39.3915 57.1451 37.6462 57.0657 35.9017 57.0477C35.1105 57.0427 34.3193 57.0489 33.5281 57.0642C34.6463 54.7404 35.4978 52.282 35.9799 49.7396C36.555 46.7038 36.6316 43.5925 36.2118 40.5221C35.7442 37.4674 34.682 34.398 32.7311 31.8808C30.8012 29.3605 28.0282 27.488 24.9985 26.6134C24.677 26.5188 24.3531 26.4385 24.0287 26.3622C23.5893 24.0867 22.8353 21.8447 21.6019 19.8045C19.9864 17.0698 17.2845 14.9201 14.2376 13.9889C12.7223 13.5081 11.1487 13.2512 9.58202 13.2184C8.00157 13.182 6.48088 13.303 4.88011 13.6714L5.33183 15.3795C8.02586 14.7874 11.0466 14.8179 13.6949 15.6702C16.3736 16.4987 18.659 18.3135 20.0962 20.729C21.0715 22.3398 21.7259 24.1456 22.1483 26.0264C16.8875 25.353 11.4497 26.9191 7.22527 30.0604C4.726 31.9238 2.63377 34.4032 1.34831 37.2775C-0.0192415 40.104 -0.427017 43.5223 0.499374 46.6298C1.43748 49.7336 3.70866 52.379 6.61607 53.798C9.49834 55.2533 13.1279 55.3466 16.04 53.8196C18.9894 52.3356 20.9767 49.581 22.1962 46.7457C23.4442 43.8792 24.0555 40.8293 24.3531 37.7973C24.6413 34.7678 24.709 31.7177 24.3713 28.6589C24.3569 28.5264 24.3365 28.3937 24.3204 28.261C24.3761 28.2769 24.4328 28.2883 24.4883 28.3049C27.2015 29.0898 29.6238 30.7354 31.3321 32.96C33.0566 35.1831 34.0285 37.9471 34.4636 40.778C34.8534 43.6306 34.784 46.5744 34.2439 49.4111C33.7345 52.0966 32.7927 54.6935 31.5278 57.1262C26.9465 57.3201 22.3796 57.8828 17.8902 58.9468C14.9405 59.6678 12.0071 60.6065 9.27348 62.1349C7.92064 62.9156 6.60393 63.8576 5.55644 65.1613C5.03368 65.8079 4.606 66.5699 4.3416 67.3997C4.06346 68.2319 4.02251 69.1306 4.08507 69.9503C4.127 70.7973 4.39256 71.6989 4.80711 72.4858C5.29808 73.2274 5.92314 73.9157 6.74632 74.2941C8.39153 75.1347 10.1072 75.124 11.6744 74.9234C14.8384 74.4625 17.687 73.1472 20.3194 71.5739C25.3829 68.4341 29.6738 64.0688 32.5979 58.8602C33.6939 58.8267 34.7901 58.8071 35.8849 58.8143C37.6384 58.8323 39.3908 58.9145 41.1346 59.0597V59.0888V63.573V64.694C41.1478 65.0873 41.1642 65.5021 41.195 65.9049C41.3037 66.7145 41.4499 67.5326 41.7712 68.3058C42.3492 69.8703 43.4754 71.2455 44.8661 72.1609C46.2598 73.0847 47.8951 73.5764 49.5364 73.6464C51.175 73.7131 52.8596 73.3814 54.3239 72.5333C55.7997 71.7213 56.9914 70.2971 57.5107 68.6663C57.7667 67.8552 57.9018 67.0081 57.88 66.182C57.8917 65.7604 57.8477 65.3685 57.7945 64.9435C57.7513 64.5043 57.644 64.0573 57.4667 63.6471ZM22.595 37.6218C22.3121 40.5281 21.7219 43.4142 20.5781 46.0363C19.4606 48.6428 17.6892 51.0211 15.2408 52.244C12.8267 53.5057 9.84801 53.4409 7.39366 52.2115C4.92699 51.0092 2.98296 48.7481 2.1895 46.1149C1.4138 43.4753 1.72527 40.5565 2.9561 38.0101C4.11192 35.4222 6.00127 33.1774 8.28392 31.4749C12.2881 28.4813 17.5718 27.0517 22.4877 27.8502C22.5364 28.1857 22.5798 28.5222 22.6159 28.8594C22.936 31.7453 22.8736 34.705 22.595 37.6218ZM19.3999 70.0651C16.921 71.5541 14.2169 72.7738 11.4419 73.172C10.0764 73.3624 8.64427 73.2974 7.61198 72.7534C7.05962 72.5103 6.65001 72.045 6.31969 71.5556C6.05254 71.015 5.87358 70.4625 5.84654 69.8137C5.70586 68.4891 6.10356 67.306 6.94182 66.2577C7.77116 65.2204 8.9182 64.3762 10.1491 63.6694C12.642 62.2728 15.4573 61.3568 18.3058 60.6641C22.291 59.7182 26.3857 59.1813 30.4989 58.951C27.7569 63.4586 23.8813 67.289 19.3999 70.0651ZM55.8316 68.1166C55.4371 69.3339 54.5865 70.3683 53.444 71.0012C52.3189 71.6585 50.9497 71.9377 49.6127 71.8812C48.2721 71.8254 46.9415 71.4189 45.8421 70.6883C44.7441 69.9601 43.8771 68.9088 43.4185 67.6672C43.1603 67.0578 43.0459 66.3893 42.9523 65.7219L42.9014 64.694V63.573V59.2296C43.503 59.2975 44.1043 59.3686 44.7024 59.4559C47.591 59.894 50.5093 60.524 53.0233 61.7845C54.2582 62.4332 55.3835 63.2401 55.8299 64.326C55.9499 64.5999 56.0206 64.8897 56.0446 65.1929C56.0851 65.51 56.1263 65.8607 56.1133 66.1882C56.134 66.8569 56.0215 67.5056 55.8316 68.1166Z" fill="#DDDDDD"/>
</svg>
