<svg xmlns="http://www.w3.org/2000/svg" xmlns:xlink="http://www.w3.org/1999/xlink" version="1.1" x="0px" y="0px" viewBox="0 0 100 125" style="enable-background:new 0 0 100 100;" xml:space="preserve"><path d="M73.3,74.5c0.7-18.5-10-23.8-13.5-25c-1.2-0.4-2.5-0.7-3.7-0.9c-1.5-8.3-8.1-27.5-36.5-26.8l0.1,2  C45.4,22.9,52.6,41,54.1,48.5c0,0,0,0,0,0c-3.8,0-7.3,1.3-8.8,3.7c-1.6,2.5-1,5.5,1.7,8.5c2.9,3.2,5.2,2.6,6.3,2  c2.6-1.5,3.8-6.4,3.2-12.1c0.9,0.1,1.8,0.4,2.8,0.7c4,1.4,12.8,6.4,12.2,23L66,68.8l-1.4,1.4l7.8,8l8-7.8L79,69L73.3,74.5z   M48.4,59.4c-1.5-1.6-2.9-3.9-1.5-6c1.1-1.8,4.1-2.9,7.5-2.8C55.3,57.4,53.3,64.6,48.4,59.4z"/><text x="0" y="115" fill="#000000" font-size="5px" font-weight="bold" font-family="'Helvetica Neue', Helvetica, Arial-Unicode, Arial, Sans-serif">Created by ridhobadal</text><text x="0" y="120" fill="#000000" font-size="5px" font-weight="bold" font-family="'Helvetica Neue', Helvetica, Arial-Unicode, Arial, Sans-serif">from the Noun Project</text></svg>